<svg xmlns="http://www.w3.org/2000/svg" style="width:0; height:0; visibility:hidden;">
    <symbol id="icon_arrow" viewBox="0 0 21.825 21.825">
       <path fill="currentColor" d="M16.791,13.254c0.444-0.444,1.143-0.444,1.587,0c0.429,0.444,0.429,1.143,0,1.587l-6.65,6.651
	c-0.206,0.206-0.492,0.333-0.809,0.333c-0.317,0-0.603-0.127-0.81-0.333l-6.65-6.651c-0.444-0.444-0.444-1.143,0-1.587
	s1.143-0.444,1.587,0l4.746,4.762V1.111C9.791,0.492,10.299,0,10.918,0c0.619,0,1.111,0.492,1.111,1.111v16.904L16.791,13.254z"/> 
    </symbol>
    <symbol id="icon_burger" viewBox="0 0 459 459">
       <g> <path d="M0,382.5h459v-51H0V382.5z M0,255h459v-51H0V255z M0,76.5v51h459v-51H0z" fill="currentColor"/> </g> 
    </symbol>
    <symbol id="icon_close" viewBox="0 0 357 357">
       <polygon points="357,35.7 321.3,0 178.5,142.8 35.7,0 0,35.7 142.8,178.5 0,321.3 35.7,357 178.5,214.2 321.3,357 357,321.3 214.2,178.5" fill="currentColor"/> 
    </symbol>
    <symbol id="icon_logo" viewBox="0 0 214.976 60.107">
       <g> <g> <g> <path fill="currentColor" d="M91.352,24.143c-0.666,0.125-1.602,0.125-2.269,0l-1.689-7.538l-2.716,7.538
				c-0.647,0.125-1.205,0.125-1.871,0l-2.717-7.538l-1.673,7.538c-0.665,0.125-1.62,0.125-2.285,0l2.753-11.694
				c0.664-0.124,1.295-0.124,1.96,0l2.896,8.043l2.896-8.043c0.666-0.124,1.295-0.124,1.962,0L91.352,24.143z"/> <path fill="currentColor" d="M104.127,24.143c-0.665,0.125-1.745,0.125-2.409,0l-1.009-2.591h-4.712l-1.01,2.591
				c-0.665,0.125-1.744,0.125-2.409,0l4.803-11.694c0.666-0.124,1.278-0.124,1.943,0L104.127,24.143z M99.974,19.592l-1.62-4.141
				l-1.618,4.141H99.974z"/> <path fill="currentColor" d="M114.116,12.447c0.665-0.124,1.654-0.124,2.32,0v11.694c-0.666,0.125-1.655,0.125-2.32,0v-4.964h-5.667
				v4.964c-0.665,0.125-1.674,0.125-2.339,0V12.447c0.665-0.124,1.674-0.124,2.339,0v4.786h5.667V12.447z"/> <path fill="currentColor" d="M126.909,12.447c0.666-0.124,1.835-0.124,2.502,0l-6.729,11.694c-0.665,0.125-1.835,0.125-2.501,0
				l2.501-4.299l-4.264-7.396c0.666-0.124,1.835-0.124,2.5,0l3.004,5.345L126.909,12.447z"/> <path fill="currentColor" d="M139.397,13.602c3.651,0,5.344,2.392,5.344,4.694c0,2.285-1.69,4.677-5.344,4.677h-0.719v1.17
				c-0.665,0.125-1.674,0.125-2.34,0v-1.17h-0.72c-3.65,0-5.343-2.392-5.343-4.677c0-2.304,1.691-4.694,5.343-4.694h0.72v-1.153
				c0.666-0.124,1.675-0.124,2.34,0v1.153H139.397z M135.585,15.543c-1.942,0-2.933,1.296-2.933,2.753
				c0,1.438,0.989,2.732,2.933,2.732h0.755v-5.485H135.585z M139.435,21.028c1.925,0,2.915-1.296,2.915-2.732
				c0-1.457-0.99-2.753-2.915-2.753h-0.773v5.485H139.435z"/> <path fill="currentColor" d="M157.698,24.143c-0.665,0.125-1.745,0.125-2.41,0l-1.008-2.591h-4.713l-1.009,2.591
				c-0.665,0.125-1.744,0.125-2.409,0l4.803-11.694c0.666-0.124,1.278-0.124,1.943,0L157.698,24.143z M153.544,19.592l-1.62-4.141
				l-1.618,4.141H153.544z"/> <path fill="currentColor" d="M169.52,24.143c-0.665,0.125-2.122,0.125-2.788,0l-4.712-5.668v5.668c-0.665,0.125-1.674,0.125-2.34,0
				V12.448c0.666-0.124,1.675-0.124,2.34,0v5.345l4.515-5.345c0.666-0.124,2.123-0.124,2.788,0l-4.82,5.688L169.52,24.143z"/> <path fill="currentColor" d="M179.978,12.447c0.126,0.665,0.126,1.278,0,1.943h-3.418v9.751c-0.648,0.125-1.655,0.125-2.32,0v-9.751
				h-3.419c-0.125-0.665-0.125-1.278,0-1.943H179.978z"/> <path fill="currentColor" d="M189.782,12.447c0.666-0.124,1.836-0.124,2.503,0l-6.729,11.694c-0.666,0.125-1.837,0.125-2.502,0
				l2.502-4.299l-4.265-7.396c0.665-0.124,1.834-0.124,2.5,0l3.004,5.345L189.782,12.447z"/> <path fill="currentColor" d="M198.728,12.447c2.683,0,4.354,1.62,4.354,3.869s-1.673,3.868-4.354,3.868h-2.104v3.957
				c-0.666,0.125-1.675,0.125-2.34,0V12.447H198.728z M198.709,18.241c1.225,0,1.996-0.719,1.996-1.925
				c0-1.188-0.771-1.926-1.996-1.926h-2.104v3.851H198.709L198.709,18.241z"/> <path fill="currentColor" d="M214.976,24.143c-0.665,0.125-1.746,0.125-2.411,0l-1.008-2.591h-4.712l-1.01,2.591
				c-0.665,0.125-1.743,0.125-2.409,0l4.804-11.694c0.665-0.124,1.276-0.124,1.942,0L214.976,24.143z M210.818,19.592l-1.618-4.141
				l-1.62,4.141H210.818z"/> <path fill="currentColor" d="M80.019,45.897c0.126,0.665,0.126,1.17,0,1.854h-3.887V34.061l3.887-0.019
				c0.126,0.666,0.126,1.17,0,1.854h-1.764v10.02L80.019,45.897z"/> <path fill="currentColor" d="M96.14,42.911c0.161,0.217,0.126,1.817,0,2.122c-0.792,0.503-2.033,0.973-3.67,0.973
				c-3.978,0-6.494-2.754-6.494-6.116c0-3.363,2.518-6.116,6.494-6.116c1.637,0,2.878,0.468,3.67,0.97
				c0.126,0.308,0.161,1.908,0,2.124c-1.205-0.772-2.394-1.151-3.544-1.151c-2.375,0-4.245,1.654-4.245,4.175
				c0,2.52,1.87,4.174,4.245,4.174C93.746,44.063,94.935,43.686,96.14,42.911z"/> <path fill="currentColor" d="M106.972,43.793c0.126,0.666,0.126,1.276,0,1.942h-8.041V34.042h8.041c0.126,0.666,0.126,1.277,0,1.942
				h-5.701v2.843h5.126c0.127,0.666,0.127,1.278,0,1.943h-5.126v3.021L106.972,43.793L106.972,43.793z"/> <path fill="currentColor" d="M119.46,45.735c-0.665,0.125-1.655,0.125-2.32,0v-9.751h-5.665v9.751c-0.666,0.125-1.676,0.125-2.34,0
				V34.042h10.325V45.735L119.46,45.735z"/> <path fill="currentColor" d="M132.452,45.735c-0.647,0.125-1.656,0.125-2.321,0v-7.771l-6.151,7.771c-0.666,0.125-1.17,0.125-1.836,0
				V34.042c0.666-0.125,1.674-0.125,2.339,0v7.771l6.135-7.771c0.666-0.125,1.188-0.125,1.836,0L132.452,45.735L132.452,45.735z"/> <path fill="currentColor" d="M143.859,45.735c-0.666,0.125-1.674,0.125-2.339,0V41.65h-1.744l-2.789,4.085
				c-0.667,0.125-1.889,0.125-2.554,0l3.004-4.427c-1.603-0.538-2.482-1.852-2.482-3.452c0-2.213,1.636-3.814,4.316-3.814h4.588
				V45.735L143.859,45.735z M139.311,35.985c-1.227,0-1.999,0.719-1.999,1.872c0,1.149,0.772,1.854,1.999,1.854h2.211v-3.726
				H139.311z"/> <path fill="currentColor" d="M150.249,47.752c-0.125-0.686-0.125-1.189,0-1.854l1.765,0.019v-10.02h-1.765
				c-0.125-0.685-0.125-1.188,0-1.854l3.888,0.019v13.691L150.249,47.752L150.249,47.752z"/> </g> <g> <g> <g> <path fill="currentColor" d="M0.892,19.822l0.878-1.564l7.196,0.777c0.73,0.09,1.735,0.293,1.735,0.293l0.018-0.028
						c0,0-0.689-0.768-1.146-1.341l-4.417-5.737l0.878-1.565l11.219,5.153l-0.836,1.49l-7.055-3.278
						c-0.688-0.305-1.598-0.855-1.598-0.855l-0.019,0.029c0,0,0.801,0.89,1.258,1.464l3.632,4.857l-0.75,1.337l-6.028-0.582
						c-0.714-0.083-1.936-0.328-1.936-0.328l-0.018,0.03c0,0,0.975,0.508,1.594,0.935l6.476,4.313l-0.845,1.505L0.892,19.822z"/> </g> <g> <g> <path fill="currentColor" d="M16.845,3.026l1.667-0.757l9.105,9.379l-1.618,0.736l-2.592-2.71l-4.222,1.918l0.338,3.733
							l-1.604,0.729L16.845,3.026z M22.403,8.561l-2.846-2.975c-0.458-0.501-1.173-1.4-1.173-1.4l-0.032,0.014
							c0,0,0.225,1.123,0.3,1.796l0.354,4.109L22.403,8.561z"/> </g> </g> <g> <path fill="currentColor" d="M31.622,0l1.677,0.407l-1.273,5.25l6.216,1.511l1.275-5.251l1.659,0.399l-2.903,11.961l-1.66-0.404
						l1.275-5.25l-6.218-1.51l-1.273,5.25l-1.678-0.406L31.622,0z"/> </g> <g> <g> <path fill="currentColor" d="M41.316,14.885c0.065,0.368,0.194,1.005,0.634,1.404c0.528,0.479,1.138,0.326,1.958-0.082l2.89-10.402
							l1.405,1.28l-1.946,6.594c-0.232,0.826-0.574,1.668-0.574,1.668l0.024,0.022c0,0,0.769-0.455,1.466-0.834l5.865-3.052
							l1.34,1.219l-9.656,4.786c-1.194,0.588-2.607,0.977-3.742-0.058c-0.617-0.563-0.937-1.301-1.122-2.105L41.316,14.885z"/> </g> </g> <g> <path fill="currentColor" d="M57.715,22.161l1.373-0.33l0.403,1.679l-1.372,0.329c0.79,3.288-0.646,6.035-3.629,6.753
						c-3.035,0.729-5.592-1.038-6.388-4.344l-1.524,0.367l-0.402-1.678L47.7,24.57c-0.796-3.306,0.681-6.043,3.712-6.772
						C54.396,17.079,56.92,18.857,57.715,22.161z M49.123,24.229l7.169-1.723c-0.554-2.308-2.279-3.522-4.466-2.996
						C49.588,20.048,48.568,21.925,49.123,24.229z M54.078,28.883c2.187-0.526,3.173-2.396,2.617-4.699l-7.168,1.724
						C50.082,28.211,51.841,29.419,54.078,28.883z"/> </g> <g> <g> <path fill="currentColor" d="M57.634,39.924l-0.673,1.702l-13.063-0.407l0.65-1.652l3.745,0.145l1.7-4.313l-2.84-2.448l0.646-1.639
							L57.634,39.924z M49.789,39.812l4.115,0.161c0.677,0.041,1.816,0.19,1.816,0.19l0.014-0.032c0,0-0.941-0.652-1.466-1.082
							l-3.111-2.706L49.789,39.812z"/> </g> </g> <g> <path fill="currentColor" d="M50.819,51.076l-1.358,1.063l-3.188-4.079l-1.442,1.125l0.729,6l-1.496,1.17l-0.767-6.812l-0.021-0.026
						l-6.966-2.719l1.552-1.214l6.049,2.42l1.441-1.126l-3.465-4.438l1.357-1.063L50.819,51.076z"/> </g> <g> <g> <path fill="currentColor" d="M34.326,57.797l4.195-0.589l0.207,1.483l-10.08,1.416l-0.207-1.484l4.193-0.589l-1.503-10.701
							l1.691-0.238L34.326,57.797z"/> </g> </g> <g> <g> <path fill="currentColor" d="M25.289,49.084c-0.19-0.317-0.537-0.868-1.089-1.085c-0.665-0.264-1.181,0.095-1.803,0.77l0.987,10.75
							l-1.77-0.697l-0.518-6.856c-0.075-0.854-0.055-1.764-0.055-1.764l-0.03-0.012c0,0-0.559,0.698-1.075,1.299l-4.401,4.937
							l-1.688-0.665l7.333-7.899c0.906-0.974,2.092-1.837,3.519-1.275c0.778,0.309,1.337,0.885,1.798,1.572L25.289,49.084z"/> </g> </g> <g> <g> <path fill="currentColor" d="M8.681,51.531l-2.854-3.498c-1.422-1.741-1.261-3.94,0.549-5.42c1.811-1.478,4.039-1.227,5.46,0.517
							l1.766,2.16l3.522-2.879l1.091,1.339L8.681,51.531z M10.851,44.294c-0.927-1.135-2.228-1.267-3.374-0.328
							c-1.134,0.925-1.238,2.201-0.323,3.322l1.599,1.96l3.687-3.011L10.851,44.294z"/> </g> </g> <g> <path fill="currentColor" d="M0.338,36.263L0,34.462l11.279-6.604l0.328,1.746l-3.248,1.871l0.854,4.557l3.707,0.563l0.324,1.729
						L0.338,36.263z M7.037,32.183L3.47,34.236c-0.597,0.325-1.641,0.807-1.641,0.807l0.007,0.032c0,0,1.146,0.053,1.816,0.14
						l4.074,0.635L7.037,32.183z"/> </g> <g> <g> <path fill="currentColor" d="M21.226,27.775c-0.562-0.591-1.286-0.869-1.992-0.849c-1.659,0.03-2.512,1.42-2.512,2.749
							c0,1.315,0.873,2.686,2.512,2.686c0.746,0,1.588-0.353,2.146-1.023l0.83,0.64c-0.788,0.956-1.784,1.465-2.978,1.465
							c-2.418,0-3.704-1.879-3.704-3.766c0-1.89,1.286-3.819,3.704-3.819c1.068,0,2.013,0.342,2.738,1.226L21.226,27.775z"/> </g> <g> <path fill="currentColor" d="M27.449,27.039h-2.883v2.087h2.842v1.025h-2.842v2.116h2.883v1.018h-4.077v-7.272h4.077V27.039z"/> </g> <g> <path fill="currentColor" d="M30.303,33.297H29.12V25.99h2.264c1.68,0,2.51,1.216,2.51,2.407c0,1.204-0.83,2.366-2.5,2.366h-1.091
							V33.297z M32.71,28.398c0-0.611-0.456-1.328-1.327-1.328h-1.08v2.616h1.08C32.265,29.687,32.71,29.001,32.71,28.398z"/> </g> <g> <path fill="currentColor" d="M35.253,25.99h1.184v7.295h-1.184V25.99z"/> </g> <g> <path fill="currentColor" d="M39.941,25.972h1.266l2.638,7.313H42.6l-0.812-2.21h-2.417l-0.776,2.21h-1.257L39.941,25.972z
							 M41.427,30.037l-0.675-2.074l-0.166-0.746h-0.053l-0.166,0.746l-0.643,2.074H41.427z"/> </g> </g> </g> </g> </g> </g> 
    </symbol></svg>