<svg xmlns="http://www.w3.org/2000/svg" xmlns:xlink="http://www.w3.org/1999/xlink" x="0px" y="0px"
	 width="164.449px" height="92.488px" viewBox="0 0 164.449 92.488" enable-background="new 0 0 164.449 92.488"
	 xml:space="preserve">
<g>
	<path fill="#414141" d="M119.74,43.771L119.74,43.771c1.159,0,2.216,0.473,2.978,1.237c0.764,0.761,1.238,1.816,1.238,2.978v8.102
		v0.735h-0.735h-6.96h-0.734v-0.735v-8.102c0-1.16,0.475-2.217,1.238-2.978C117.528,44.244,118.581,43.771,119.74,43.771
		L119.74,43.771z M119.741,45.239L119.741,45.239c-0.756,0-1.442,0.31-1.939,0.805c-0.496,0.5-0.807,1.188-0.807,1.942v7.369h5.492
		v-7.369c0-0.755-0.311-1.442-0.806-1.942C121.181,45.548,120.495,45.239,119.741,45.239L119.741,45.239z"/>
	<path fill="#414141" d="M143.998,43.771L143.998,43.771c1.158,0,2.212,0.473,2.977,1.237c0.764,0.761,1.238,1.816,1.238,2.978
		v8.102v0.735h-0.735h-6.961h-0.732v-0.735v-8.102c0-1.16,0.473-2.217,1.237-2.978C141.783,44.244,142.838,43.771,143.998,43.771
		L143.998,43.771z M143.998,45.239L143.998,45.239c-0.756,0-1.44,0.31-1.94,0.805c-0.497,0.5-0.807,1.188-0.807,1.942v7.369h5.491
		v-7.369c0-0.755-0.31-1.442-0.809-1.942C145.438,45.548,144.752,45.239,143.998,45.239L143.998,45.239z"/>
	<path fill="#414141" d="M12.482,37.809h58.395l10.315-5.777l0.168-0.096h0.189h1.352h0.189l0.168,0.096l10.315,5.777h58.396h0.407
		l0.216,0.354l11.856,19.822v0.673v33.097v0.734h-0.734H88.831H75.618H0.733H0v-0.734v-33.77l11.855-19.822l0.217-0.354H12.482
		L12.482,37.809z M82.226,68.095L82.226,68.095c1.813,0,3.466,0.742,4.663,1.94l0.001,0.001l0.002,0.004
		c1.197,1.195,1.94,2.847,1.94,4.662v16.316h74.148V58.715l-59.251-0.059H60.72L1.47,58.715v32.304h74.148V74.702
		c0-1.819,0.742-3.472,1.938-4.667C78.756,68.837,80.409,68.095,82.226,68.095L82.226,68.095z M82.226,69.563L82.226,69.563
		c-1.413,0-2.697,0.58-3.629,1.51c-0.931,0.933-1.51,2.22-1.51,3.63V91.02h10.277V74.703c0-1.414-0.578-2.699-1.51-3.63l0,0
		C84.926,70.142,83.639,69.563,82.226,69.563L82.226,69.563z M63.138,57.191v-5.726v-0.736h0.735h5.872v-5.728v-0.731h0.734h3.67
		v-4.992h-5.894H12.892L2.037,57.191H63.138L63.138,57.191z M90.301,39.278v4.992h3.67h0.735v0.731v5.728h5.872h0.733v0.736v5.726
		h61.104L151.56,39.278H96.197H90.301L90.301,39.278z M99.846,57.191v-4.99h-5.875h-0.731v-0.734v-5.729h-3.67h-0.736v-0.734v-5.726
		H75.62v5.726v0.734h-0.736h-3.67v5.729v0.734h-0.732h-5.875v4.99H99.846L99.846,57.191z M73.878,37.809h0.273h16.149h0.273
		l-7.863-4.404H81.74L73.878,37.809L73.878,37.809z"/>
	<polygon fill="#836F50" points="82.52,2.737 96.765,2.737 90.892,6.493 96.765,10.314 82.52,10.314 	"/>
	<path fill="#414141" d="M78.52,21.657h7.412l-3.706-4.381L78.52,21.657L78.52,21.657z M81.932,0h0.588h0.366v0.367v15.421
		l0.22,0.257l4.966,5.874l1.021,1.207h-1.581h-0.146v15.416v0.735h-0.732H77.82h-0.732v-0.735V23.126h-0.146h-1.58l1.021-1.207
		l4.965-5.874l0.222-0.257V0.367V0H81.932L81.932,0z M85.896,23.126h-7.342v14.683h7.342V23.126L85.896,23.126z"/>
	<path fill="#414141" d="M44.713,45.239L44.713,45.239c-0.755,0-1.441,0.31-1.941,0.805c-0.495,0.5-0.806,1.188-0.806,1.942v7.369
		h5.493v-7.369c0-0.755-0.311-1.442-0.808-1.942C46.155,45.548,45.465,45.239,44.713,45.239L44.713,45.239z M44.712,43.771
		L44.712,43.771c1.161,0,2.215,0.473,2.978,1.237c0.765,0.761,1.238,1.816,1.238,2.978v8.102v0.735h-0.735h-6.96h-0.733v-0.735
		v-8.102c0-1.16,0.476-2.217,1.236-2.978C42.497,44.244,43.552,43.771,44.712,43.771L44.712,43.771z"/>
	<path fill="#414141" d="M20.457,45.239h-0.002c-0.752,0-1.439,0.31-1.937,0.805c-0.5,0.5-0.809,1.188-0.809,1.942v7.369h5.492
		v-7.369c0-0.755-0.309-1.442-0.808-1.942C21.897,45.548,21.211,45.239,20.457,45.239L20.457,45.239z M20.455,43.771h0.002
		c1.158,0,2.217,0.473,2.977,1.237c0.765,0.761,1.237,1.816,1.237,2.978v8.102v0.735h-0.733h-6.961h-0.735v-0.735v-8.102
		c0-1.16,0.477-2.217,1.237-2.978C18.242,44.244,19.298,43.771,20.455,43.771L20.455,43.771z"/>
	<path fill="#414141" d="M5.877,68.498h11.745h0.734v0.73v17.617v0.736h-0.734H5.877H5.141v-0.736V69.229v-0.73H5.877L5.877,68.498z
		 M16.889,69.964H6.61v16.153h10.278V69.964L16.889,69.964z"/>
	<path fill="#414141" d="M23.496,68.498h11.746h0.733v0.73v17.617v0.736h-0.733H23.496h-0.735v-0.736V69.229v-0.73H23.496
		L23.496,68.498z M34.509,69.964H24.228v16.153h10.281V69.964L34.509,69.964z"/>
	<path fill="#414141" d="M41.114,68.498h11.745h0.734v0.73v17.617v0.736h-0.734H41.114h-0.733v-0.736V69.229v-0.73H41.114
		L41.114,68.498z M52.127,69.964h-10.28v16.153h10.28V69.964L52.127,69.964z"/>
	<path fill="#414141" d="M93.971,68.498h11.747h0.734v0.73v17.617v0.736h-0.734H93.971h-0.731v-0.736V69.229v-0.73H93.971
		L93.971,68.498z M104.985,69.964H94.707v16.153h10.278V69.964L104.985,69.964z"/>
	<path fill="#414141" d="M58.731,68.498H70.48h0.732v0.73v17.617v0.736H70.48H58.731H58v-0.736V69.229v-0.73H58.731L58.731,68.498z
		 M69.746,69.964H59.467v16.153h10.279V69.964L69.746,69.964z"/>
	<path fill="#414141" d="M111.592,68.498h11.745h0.734v0.73v17.617v0.736h-0.734h-11.745h-0.735v-0.736V69.229v-0.73H111.592
		L111.592,68.498z M122.604,69.964h-10.278v16.153h10.278V69.964L122.604,69.964z"/>
	<path fill="#414141" d="M129.213,68.498h11.745h0.733v0.73v17.617v0.736h-0.733h-11.745h-0.735v-0.736V69.229v-0.73H129.213
		L129.213,68.498z M140.224,69.964h-10.279v16.153h10.279V69.964L140.224,69.964z"/>
	<path fill="#414141" d="M146.831,68.498h11.748h0.729v0.73v17.617v0.736h-0.729h-11.748h-0.735v-0.736V69.229v-0.73H146.831
		L146.831,68.498z M157.843,69.964h-10.278v16.153h10.278V69.964L157.843,69.964z"/>
</g>
</svg>
